<?xml version="1.0" encoding="utf-8" ?>
<svg baseProfile="tiny" height="100%" version="1.2" width="100%" xmlns="http://www.w3.org/2000/svg" xmlns:ev="http://www.w3.org/2001/xml-events" xmlns:xlink="http://www.w3.org/1999/xlink"><defs /><polygon fill="black" points="845,483 844,484 841,484 840,485 839,485 838,486 837,486 831,492 831,493 830,494 830,495 829,496 829,499 828,500 828,507 829,508 829,512 831,514 831,515 834,518 835,518 837,520 838,520 839,521 840,521 841,522 844,522 845,523 848,523 849,524 853,524 854,525 858,525 859,526 861,526 862,527 863,527 865,529 865,534 864,535 864,536 863,537 862,537 861,538 859,538 858,539 848,539 847,538 844,538 843,537 842,537 840,535 840,534 838,532 838,530 837,530 836,531 834,531 833,532 831,532 830,533 828,533 827,534 827,538 828,539 828,540 829,541 829,542 835,548 836,548 837,549 839,549 840,550 842,550 843,551 847,551 848,552 859,552 860,551 864,551 865,550 867,550 868,549 869,549 870,548 871,548 873,546 874,546 876,544 876,543 878,541 878,540 879,539 879,537 880,536 880,525 879,524 879,522 878,521 878,520 873,515 872,515 871,514 870,514 869,513 868,513 867,512 864,512 863,511 860,511 859,510 855,510 854,509 851,509 850,508 848,508 847,507 846,507 844,505 844,504 843,503 843,500 844,499 844,498 846,496 848,496 849,495 858,495 859,496 861,496 862,497 863,497 867,501 867,502 869,502 870,501 871,501 872,500 873,500 874,499 875,499 876,498 877,498 878,497 878,495 876,493 876,492 870,486 869,486 868,485 866,485 865,484 863,484 862,483" /><polygon fill="black" points="784,483 783,484 781,484 780,485 778,485 777,486 776,486 773,489 772,489 768,493 768,494 766,496 766,497 764,499 764,501 763,502 763,503 762,504 762,507 761,508 761,512 760,513 760,522 761,523 761,529 762,530 762,532 763,533 763,535 764,536 764,537 765,538 765,539 767,541 767,542 770,545 771,545 774,548 775,548 776,549 778,549 779,550 781,550 782,551 786,551 787,552 796,552 797,551 801,551 802,550 804,550 805,549 807,549 808,548 809,548 811,546 812,546 817,541 817,540 818,539 818,538 819,537 819,536 820,535 820,531 808,531 807,530 806,531 806,532 804,534 804,535 802,537 801,537 800,538 799,538 798,539 787,539 786,538 784,538 783,537 782,537 779,534 779,533 777,531 777,529 776,528 776,524 775,523 776,522 820,522 821,521 821,509 820,508 820,504 819,503 819,502 818,501 818,499 817,498 817,497 816,496 816,495 812,491 812,490 811,489 810,489 807,486 806,486 805,485 804,485 803,484 801,484 800,483" /><polygon fill="black" points="565,483 564,484 561,484 560,485 559,485 558,486 557,486 556,487 555,487 553,489 552,489 547,494 547,495 545,497 545,498 544,499 544,500 543,501 543,502 542,503 542,504 541,505 541,508 540,509 540,516 539,517 539,519 540,520 540,526 541,527 541,530 542,531 542,532 543,533 543,535 545,537 545,538 547,540 547,541 551,545 552,545 554,547 555,547 557,549 559,549 560,550 562,550 563,551 567,551 568,552 576,552 577,551 581,551 582,550 584,550 585,549 586,549 587,548 588,548 589,547 590,547 593,544 594,544 597,541 597,540 599,538 599,537 600,536 600,535 601,534 601,533 602,532 602,531 603,530 603,527 604,526 604,523 605,522 605,512 604,511 604,507 603,506 603,504 602,503 602,502 601,501 601,500 600,499 600,498 599,497 599,496 596,493 596,492 594,490 593,490 590,487 589,487 588,486 587,486 586,485 585,485 584,484 581,484 580,483" /><polygon fill="black" points="494,483 493,484 491,484 490,485 488,485 487,486 486,486 485,487 484,487 481,490 480,490 477,493 477,494 474,497 474,498 473,499 473,500 472,501 472,502 471,503 471,505 470,506 470,509 469,510 469,524 470,525 470,529 471,530 471,531 472,532 472,534 473,535 473,536 475,538 475,539 483,547 484,547 485,548 486,548 487,549 488,549 489,550 491,550 492,551 497,551 498,552 505,552 506,551 511,551 512,550 514,550 515,549 516,549 517,548 518,548 520,546 521,546 528,539 528,538 530,536 530,535 531,534 531,533 532,532 532,530 533,529 533,526 534,525 534,509 533,508 533,506 532,505 532,503 531,502 531,501 530,500 530,499 529,498 529,497 528,496 528,495 521,488 520,488 518,486 517,486 516,485 514,485 513,484 511,484 510,483" /><polygon fill="black" points="897,464 895,466 895,471 894,472 894,482 892,484 885,484 885,495 886,496 893,496 894,497 894,540 895,541 895,543 897,545 897,546 899,548 900,548 901,549 902,549 903,550 922,550 923,549 923,538 916,538 915,537 913,537 911,535 911,534 910,533 910,497 911,496 922,496 924,494 924,484 913,484 912,483 911,483 910,482 910,465 909,464" /><polygon fill="black" points="679,460 678,461 678,549 679,550 695,550 695,494 696,493 698,495 698,496 700,498 700,499 702,501 702,502 705,505 705,506 707,508 707,509 709,511 709,512 711,514 711,515 713,517 713,518 715,520 715,521 717,523 717,524 719,526 719,527 721,529 721,530 724,533 724,534 726,536 726,537 728,539 728,540 730,542 730,543 732,545 732,546 734,548 734,549 735,550 750,550 751,549 751,460 735,460 734,461 734,516 733,517 732,516 732,515 730,513 730,512 728,510 728,509 726,507 726,506 724,504 724,503 722,501 722,500 720,498 720,497 718,495 718,494 716,492 716,491 714,489 714,488 712,486 712,485 710,483 710,482 708,480 708,479 706,477 706,476 704,474 704,473 702,471 702,470 700,468 700,467 698,465 698,464 694,460" /><polygon fill="black" points="613,460 612,461 612,550 629,550 629,527 630,526 630,525 632,523 634,523 635,524 635,525 638,528 638,529 641,532 641,533 644,536 644,537 647,540 647,541 649,543 649,544 651,546 651,547 654,550 672,550 673,549 673,547 671,545 671,544 668,541 668,540 665,537 665,536 661,532 661,531 659,529 659,528 656,525 656,524 653,521 653,520 651,518 651,517 648,514 648,513 647,512 652,507 652,506 666,492 666,491 669,488 669,485 668,484 653,484 643,494 643,495 632,506 632,507 630,509 629,508 629,460" /><polygon fill="black" points="397,460 396,461 396,550 442,550 443,549 445,549 446,548 448,548 449,547 450,547 452,545 453,545 459,539 459,538 460,537 460,536 461,535 461,533 462,532 462,517 461,516 461,515 460,514 460,513 459,512 459,511 453,505 452,505 451,504 450,504 449,503 448,503 447,502 448,501 449,501 452,498 453,498 454,497 454,496 456,494 456,493 457,492 457,491 458,490 458,486 459,485 459,481 458,480 458,476 457,475 457,473 456,472 456,471 454,469 454,468 451,465 450,465 448,463 447,463 446,462 445,462 444,461 442,461 441,460" /><polygon fill="black" points="125,382 124,383 122,383 120,385 119,385 117,387 117,388 116,389 116,390 115,391 115,584 116,585 116,586 117,587 117,588 119,590 120,590 122,592 124,592 125,593 133,593 134,594 141,594 142,595 148,595 149,596 153,596 154,597 158,597 159,598 162,598 163,599 166,599 167,600 170,600 171,601 173,601 174,602 176,602 177,603 179,603 180,604 182,604 183,605 185,605 186,606 187,606 188,607 189,607 190,608 192,608 193,609 194,609 195,610 196,610 197,611 198,611 199,612 200,612 202,614 203,614 205,616 206,616 208,618 209,618 212,621 213,621 220,628 220,629 223,632 223,633 224,633 225,634 226,634 229,637 230,637 231,638 234,638 235,639 236,639 237,638 240,638 242,636 243,636 246,633 247,633 247,632 250,629 250,628 256,622 257,622 261,618 262,618 264,616 265,616 267,614 268,614 269,613 270,613 272,611 273,611 274,610 275,610 276,609 277,609 278,608 280,608 281,607 282,607 283,606 284,606 285,605 287,605 288,604 289,604 290,603 292,603 293,602 295,602 296,601 299,601 300,600 302,600 303,599 306,599 307,598 310,598 311,597 314,597 315,596 320,596 321,595 326,595 327,594 334,594 335,593 344,593 345,592 347,592 348,591 349,591 352,588 352,587 354,585 354,390 353,389 353,388 352,387 352,386 351,385 350,385 348,383 346,383 345,382 330,382 329,383 321,383 320,384 315,384 314,385 309,385 308,386 304,386 303,387 299,387 298,388 295,388 294,389 291,389 290,390 288,390 287,391 285,391 284,392 282,392 281,393 279,393 278,394 276,394 275,395 273,395 272,396 271,396 270,397 269,397 268,398 266,398 264,400 262,400 260,402 259,402 258,403 257,403 256,404 255,404 253,406 252,406 250,408 249,408 245,412 244,412 236,420 236,421 235,422 234,422 230,418 230,417 229,416 228,416 222,410 221,410 219,408 218,408 215,405 214,405 213,404 212,404 210,402 209,402 208,401 207,401 206,400 205,400 204,399 203,399 202,398 201,398 200,397 198,397 197,396 196,396 195,395 193,395 192,394 191,394 190,393 188,393 187,392 185,392 184,391 181,391 180,390 178,390 177,389 174,389 173,388 170,388 169,387 165,387 164,386 160,386 159,385 154,385 153,384 147,384 146,383 139,383 138,382" /></svg>